<mxfile host="" modified="2021-02-21T14:49:15.731Z" agent="5.0 (Windows NT 6.2; Win64; x64) AppleWebKit/537.36 (KHTML, like Gecko) Chrome/84.0.4147.105 Safari/537.36" etag="aeE1uq7XAxR4pqtHlUWT" version="13.7.9" type="embed"><diagram id="cHXXtzAYJmj8Drxh6WFk" name="Page-1"><mxGraphModel dx="658" dy="1667" grid="1" gridSize="10" guides="1" tooltips="1" connect="1" arrows="1" fold="1" page="1" pageScale="1" pageWidth="850" pageHeight="1100" math="0" shadow="0"><root><mxCell id="0"/><mxCell id="1" parent="0"/><mxCell id="2" value="" style="rounded=0;whiteSpace=wrap;html=1;fillColor=#000000;" parent="1" vertex="1"><mxGeometry x="164" y="309" width="310" height="20" as="geometry"/></mxCell><mxCell id="3" value="" style="rounded=0;whiteSpace=wrap;html=1;rotation=90;fillColor=#000000;" parent="1" vertex="1"><mxGeometry y="164" width="310" height="20" as="geometry"/></mxCell><mxCell id="4" value="" style="rounded=0;whiteSpace=wrap;html=1;rotation=90;fillColor=#000000;" parent="1" vertex="1"><mxGeometry x="330" y="164" width="310" height="20" as="geometry"/></mxCell><mxCell id="5" value="" style="rounded=0;whiteSpace=wrap;html=1;fillColor=#000000;" parent="1" vertex="1"><mxGeometry x="165" y="19" width="310" height="20" as="geometry"/></mxCell><object label="Robot" type="robot" speed="5" movable="true" collision_tag="stopEvent" id="robot"><mxCell style="ellipse;whiteSpace=wrap;html=1;aspect=fixed;fillColor=#e3c800;strokeColor=#B09500;fontColor=#ffffff;" parent="1" vertex="1"><mxGeometry x="310" y="260" width="30" height="30" as="geometry"/></mxCell></object><object label="" type="path" id="7"><mxCell style="endArrow=classic;html=1;" parent="1" edge="1"><mxGeometry width="50" height="50" relative="1" as="geometry"><mxPoint x="325" y="260" as="sourcePoint"/><mxPoint x="325" as="targetPoint"/></mxGeometry></mxCell></object><mxCell id="8" value="" style="rounded=0;whiteSpace=wrap;html=1;" vertex="1" parent="1"><mxGeometry x="325" y="325" width="5" height="5" as="geometry"/></mxCell></root></mxGraphModel></diagram></mxfile>